# xmcd
#
# Track frame offsets:
#	150
#	17733
#	33109
#	49167
#	64397
#	80776
#	95572
#	110117
#	123924
#	137177
#	150935
#	161358
#	176701
#	190429
#
# Disc length: 2748 seconds
#
# Revision: 1
# Processed by: cddbd v1.5.2PL0 Copyright (c) Steve Scherf et al.
# Submitted via: audiograbber 1.83.01
#
DISCID=be0aba0e
DTITLE=The BossHoss - Do Or Die
DYEAR=2009
DGENRE=Country
TTITLE0=Last Day
TTITLE1=Eagleize It
TTITLE2=Boon and Bain
TTITLE3=Jelly Bean
TTITLE4=Break Free
TTITLE5=21st Century Buttkickin' Love Affair
TTITLE6=Go! Go! Go!
TTITLE7=Rock On Rock
TTITLE8=Wolf Call
TTITLE9=Close
TTITLE10=Quick Joey Small
TTITLE11=Shake Your Hips
TTITLE12=Guitars and Cars
TTITLE13=Crazy About Mary
EXTD=
EXTT0=
EXTT1=
EXTT2=
EXTT3=
EXTT4=
EXTT5=
EXTT6=
EXTT7=
EXTT8=
EXTT9=
EXTT10=
EXTT11=
EXTT12=
EXTT13=
PLAYORDER=
